<svg width="48" height="65" viewBox="0 0 48 65" fill="none" xmlns="http://www.w3.org/2000/svg">
<ellipse cx="24" cy="32.5" rx="24" ry="32.5" fill="#1E1E1E"/>
<path d="M21.6721 11.1569C22.2042 9.18485 25.002 9.18485 25.534 11.1569L29.2707 25.0066C29.4409 25.6371 29.9081 26.1449 30.5223 26.3667L41.8155 30.4454C43.5132 31.0585 43.5942 33.4294 41.9422 34.1568L30.4561 39.2149C29.8807 39.4683 29.4579 39.9775 29.3147 40.5897L25.5505 56.6772C25.0687 58.7363 22.1375 58.7363 21.6557 56.6772L17.8925 40.5942C17.7487 39.9795 17.323 39.4688 16.7443 39.2165L5.1437 34.1601C3.48273 33.4361 3.56345 31.0533 5.2696 30.4434L16.6788 26.3649C17.2959 26.1443 17.7658 25.6354 17.9365 25.0026L21.6721 11.1569Z" fill="#FFE500"/>
</svg>
 