<svg width="67" height="27" viewBox="0 0 67 27" fill="none" xmlns="http://www.w3.org/2000/svg">
<g id="&#236;&#150;&#188;&#234;&#181;&#180; _ &#236;&#158;&#133; VER2. &#234;&#184;&#176;&#236;&#129;&#168;">
<path id="Ellipse 18" d="M67 2.52893C67 9.35656 52.8732 26.2907 32.7406 26.2907C12.6079 26.2907 0 9.35656 0 2.52893C0 -4.29871 12.6079 4.86133 32.7406 4.86133C52.8732 4.86133 67 -4.29871 67 2.52893Z" fill="black"/>
<path id="Ellipse 19" d="M59.9118 14.5703C52.9924 21.4741 47.8803 26.6118 33.2469 26.6118C17.3829 26.6118 11.3073 20.1897 5.73804 13.7676C5.73804 8.97937 18.6134 12.8043 33.2469 12.8043C47.8803 12.8043 59.9118 9.78213 59.9118 14.5703Z" fill="#FF3F3F"/>
<g id="&#236;&#157;&#180;&#235;&#185;&#168;" filter="url(#filter0_d_103_29)">
<path d="M16.6106 16.3613L11.5156 1.86133L23.5547 4.36133L16.6106 16.3613Z" fill="white"/>
</g>
<g id="&#236;&#157;&#180;&#235;&#185;&#168;_2" filter="url(#filter1_d_103_29)">
<path d="M45.9185 17.4412L41.3514 4.36133L53.9139 1.86133L45.9185 17.4412Z" fill="white"/>
</g>
</g>
<defs>
<filter id="filter0_d_103_29" x="7.51562" y="1.86133" width="20.0391" height="22.5" filterUnits="userSpaceOnUse" color-interpolation-filters="sRGB">
<feFlood flood-opacity="0" result="BackgroundImageFix"/>
<feColorMatrix in="SourceAlpha" type="matrix" values="0 0 0 0 0 0 0 0 0 0 0 0 0 0 0 0 0 0 127 0" result="hardAlpha"/>
<feOffset dy="4"/>
<feGaussianBlur stdDeviation="2"/>
<feComposite in2="hardAlpha" operator="out"/>
<feColorMatrix type="matrix" values="0 0 0 0 0 0 0 0 0 0 0 0 0 0 0 0 0 0 0.25 0"/>
<feBlend mode="normal" in2="BackgroundImageFix" result="effect1_dropShadow_103_29"/>
<feBlend mode="normal" in="SourceGraphic" in2="effect1_dropShadow_103_29" result="shape"/>
</filter>
<filter id="filter1_d_103_29" x="37.3514" y="1.86133" width="20.5625" height="23.5799" filterUnits="userSpaceOnUse" color-interpolation-filters="sRGB">
<feFlood flood-opacity="0" result="BackgroundImageFix"/>
<feColorMatrix in="SourceAlpha" type="matrix" values="0 0 0 0 0 0 0 0 0 0 0 0 0 0 0 0 0 0 127 0" result="hardAlpha"/>
<feOffset dy="4"/>
<feGaussianBlur stdDeviation="2"/>
<feComposite in2="hardAlpha" operator="out"/>
<feColorMatrix type="matrix" values="0 0 0 0 0 0 0 0 0 0 0 0 0 0 0 0 0 0 0.25 0"/>
<feBlend mode="normal" in2="BackgroundImageFix" result="effect1_dropShadow_103_29"/>
<feBlend mode="normal" in="SourceGraphic" in2="effect1_dropShadow_103_29" result="shape"/>
</filter>
</defs>
</svg>
